# Made in Blockbench 5.1.4
mtllib small_wheel.mtl

o cube
v 0.25 0.875 0.25
v 0.25 0.875 -0.25
v 0.25 0.125 0.25
v 0.25 0.125 -0.25
v -0.25 0.875 0.25
v -0.25 0.875 -0.25
v -0.25 0.125 0.25
v -0.25 0.125 -0.25
v 0 0.1875 0
v 0.25888375 0.1875 0.625
v -0.25888375 0.1875 0.625
v -0.33654875 0.125 0.8125
v -0.31066 0.125 0.75
v 0.31066 0.125 0.75
v 0.33654875 0.125 0.8125
v -0.284771875 0.125 0.6875
v 0.284771875 0.125 0.6875
v 0.25888375 0.125 0.625
v -0.25888375 0.125 0.625
v 0 0.8125 0
v -0.25888375 0.8125 0.625
v 0.25888375 0.8125 0.625
v 0.33654875 0.875 0.8125
v 0.31066 0.875 0.75
v -0.31066 0.875 0.75
v -0.33654875 0.875 0.8125
v 0.284771875 0.875 0.6875
v -0.284771875 0.875 0.6875
v -0.25888375 0.875 0.625
v 0.25888375 0.875 0.625
v 0 0.875 0.8125
v 0 0.125 0.8125
v 0 0.8125 0.8125
v 0.33654875 0.8125 0.8125
v -0.33654875 0.8125 0.8125
v 0 0.1875 0.8125
v 0.33654875 0.1875 0.8125
v -0.33654875 0.1875 0.8125
v -0.305241875 0.8125 0.8125
v -0.305241875 0.1875 0.8125
v 0.320895 0.875 0.8125
v 0.320895 0.8125 0.8125
v 0.31969875 0.875 0.8125
v 0.320895 0.1875 0.8125
v 0.320895 0.125 0.8125
v 0.31969875 0.125 0.8125
v 0 0.1875 0
v -0.25888328307758934 0.1875 0.6250001934055951
v -0.6250001934055951 0.1875 0.25888328307758923
v -0.812500163038926 0.125 0.33654835638921377
v -0.7499998785333235 0.125 0.31066029324649774
v -0.3106602932464979 0.125 0.7499998785333235
v -0.3365483563892139 0.125 0.8125001630389259
v -0.6875000359694593 0.125 0.28477178816204346
v -0.2847717881620436 0.125 0.6875000359694592
v -0.25888328307758934 0.125 0.6250001934055951
v -0.6250001934055951 0.125 0.25888328307758923
v 0 0.8125 0
v -0.6250001934055951 0.8125 0.25888328307758923
v -0.25888328307758934 0.8125 0.6250001934055951
v -0.3365483563892139 0.875 0.8125001630389259
v -0.3106602932464979 0.875 0.7499998785333235
v -0.7499998785333235 0.875 0.31066029324649774
v -0.812500163038926 0.875 0.33654835638921377
v -0.2847717881620436 0.875 0.6875000359694592
v -0.6875000359694593 0.875 0.28477178816204346
v -0.6250001934055951 0.875 0.25888328307758923
v -0.25888328307758934 0.875 0.6250001934055951
v -0.57452425971407 0.875 0.5745242597140698
v -0.57452425971407 0.125 0.5745242597140698
v -0.57452425971407 0.8125 0.5745242597140698
v -0.3365483563892139 0.8125 0.8125001630389259
v -0.812500163038926 0.8125 0.33654835638921377
v -0.57452425971407 0.1875 0.5745242597140698
v -0.3365483563892139 0.1875 0.8125001630389259
v -0.812500163038926 0.1875 0.33654835638921377
v -0.7903628594286665 0.8125 0.3586856599994733
v -0.7903628594286665 0.1875 0.3586856599994733
v -0.3476172291652128 0.875 0.801431290262927
v -0.3476172291652128 0.8125 0.801431290262927
v -0.34846310565220723 0.875 0.8005854137759326
v -0.3476172291652128 0.1875 0.801431290262927
v -0.3476172291652128 0.125 0.801431290262927
v -0.34846310565220723 0.125 0.8005854137759326
v 0 0.1875 0
v -0.625 0.1875 0.25888375
v -0.625 0.1875 -0.25888375
v -0.8125 0.125 -0.33654875
v -0.75 0.125 -0.31066
v -0.75 0.125 0.31066
v -0.8125 0.125 0.33654875
v -0.6875 0.125 -0.284771875
v -0.6875 0.125 0.284771875
v -0.625 0.125 0.25888375
v -0.625 0.125 -0.25888375
v 0 0.8125 0
v -0.625 0.8125 -0.25888375
v -0.625 0.8125 0.25888375
v -0.8125 0.875 0.33654875
v -0.75 0.875 0.31066
v -0.75 0.875 -0.31066
v -0.8125 0.875 -0.33654875
v -0.6875 0.875 0.284771875
v -0.6875 0.875 -0.284771875
v -0.625 0.875 -0.25888375
v -0.625 0.875 0.25888375
v -0.8125 0.875 0
v -0.8125 0.125 0
v -0.8125 0.8125 0
v -0.8125 0.8125 0.33654875
v -0.8125 0.8125 -0.33654875
v -0.8125 0.1875 0
v -0.8125 0.1875 0.33654875
v -0.8125 0.1875 -0.33654875
v -0.8125 0.8125 -0.305241875
v -0.8125 0.1875 -0.305241875
v -0.8125 0.875 0.320895
v -0.8125 0.8125 0.320895
v -0.8125 0.875 0.31969875
v -0.8125 0.1875 0.320895
v -0.8125 0.125 0.320895
v -0.8125 0.125 0.31969875
v 0 0.1875 0
v -0.6250001934055951 0.1875 -0.25888328307758934
v -0.25888328307758923 0.1875 -0.6250001934055951
v -0.33654835638921377 0.125 -0.812500163038926
v -0.31066029324649774 0.125 -0.7499998785333235
v -0.7499998785333235 0.125 -0.3106602932464979
v -0.8125001630389259 0.125 -0.3365483563892139
v -0.28477178816204346 0.125 -0.6875000359694593
v -0.6875000359694592 0.125 -0.2847717881620436
v -0.6250001934055951 0.125 -0.25888328307758934
v -0.25888328307758923 0.125 -0.6250001934055951
v 0 0.8125 0
v -0.25888328307758923 0.8125 -0.6250001934055951
v -0.6250001934055951 0.8125 -0.25888328307758934
v -0.8125001630389259 0.875 -0.3365483563892139
v -0.7499998785333235 0.875 -0.3106602932464979
v -0.31066029324649774 0.875 -0.7499998785333235
v -0.33654835638921377 0.875 -0.812500163038926
v -0.6875000359694592 0.875 -0.2847717881620436
v -0.28477178816204346 0.875 -0.6875000359694593
v -0.25888328307758923 0.875 -0.6250001934055951
v -0.6250001934055951 0.875 -0.25888328307758934
v -0.5745242597140698 0.875 -0.57452425971407
v -0.5745242597140698 0.125 -0.57452425971407
v -0.5745242597140698 0.8125 -0.57452425971407
v -0.8125001630389259 0.8125 -0.3365483563892139
v -0.33654835638921377 0.8125 -0.812500163038926
v -0.5745242597140698 0.1875 -0.57452425971407
v -0.8125001630389259 0.1875 -0.3365483563892139
v -0.33654835638921377 0.1875 -0.812500163038926
v -0.3586856599994733 0.8125 -0.7903628594286665
v -0.3586856599994733 0.1875 -0.7903628594286665
v -0.801431290262927 0.875 -0.3476172291652128
v -0.801431290262927 0.8125 -0.3476172291652128
v -0.8005854137759326 0.875 -0.34846310565220723
v -0.801431290262927 0.1875 -0.3476172291652128
v -0.801431290262927 0.125 -0.3476172291652128
v -0.8005854137759326 0.125 -0.34846310565220723
v 0 0.1875 0
v 0.25888328307758934 0.1875 -0.6250001934055951
v 0.6250001934055951 0.1875 -0.25888328307758923
v 0.812500163038926 0.125 -0.33654835638921377
v 0.7499998785333235 0.125 -0.31066029324649774
v 0.3106602932464979 0.125 -0.7499998785333235
v 0.3365483563892139 0.125 -0.8125001630389259
v 0.6875000359694593 0.125 -0.28477178816204346
v 0.2847717881620436 0.125 -0.6875000359694592
v 0.25888328307758934 0.125 -0.6250001934055951
v 0.6250001934055951 0.125 -0.25888328307758923
v 0 0.8125 0
v 0.6250001934055951 0.8125 -0.25888328307758923
v 0.25888328307758934 0.8125 -0.6250001934055951
v 0.3365483563892139 0.875 -0.8125001630389259
v 0.3106602932464979 0.875 -0.7499998785333235
v 0.7499998785333235 0.875 -0.31066029324649774
v 0.812500163038926 0.875 -0.33654835638921377
v 0.2847717881620436 0.875 -0.6875000359694592
v 0.6875000359694593 0.875 -0.28477178816204346
v 0.6250001934055951 0.875 -0.25888328307758923
v 0.25888328307758934 0.875 -0.6250001934055951
v 0.57452425971407 0.875 -0.5745242597140698
v 0.57452425971407 0.125 -0.5745242597140698
v 0.57452425971407 0.8125 -0.5745242597140698
v 0.3365483563892139 0.8125 -0.8125001630389259
v 0.812500163038926 0.8125 -0.33654835638921377
v 0.57452425971407 0.1875 -0.5745242597140698
v 0.3365483563892139 0.1875 -0.8125001630389259
v 0.812500163038926 0.1875 -0.33654835638921377
v 0.7903628594286665 0.8125 -0.3586856599994733
v 0.7903628594286665 0.1875 -0.3586856599994733
v 0.3476172291652128 0.875 -0.801431290262927
v 0.3476172291652128 0.8125 -0.801431290262927
v 0.34846310565220723 0.875 -0.8005854137759326
v 0.3476172291652128 0.1875 -0.801431290262927
v 0.3476172291652128 0.125 -0.801431290262927
v 0.34846310565220723 0.125 -0.8005854137759326
v 0 0.1875 0
v -0.25888375 0.1875 -0.625
v 0.25888375 0.1875 -0.625
v 0.33654875 0.125 -0.8125
v 0.31066 0.125 -0.75
v -0.31066 0.125 -0.75
v -0.33654875 0.125 -0.8125
v 0.284771875 0.125 -0.6875
v -0.284771875 0.125 -0.6875
v -0.25888375 0.125 -0.625
v 0.25888375 0.125 -0.625
v 0 0.8125 0
v 0.25888375 0.8125 -0.625
v -0.25888375 0.8125 -0.625
v -0.33654875 0.875 -0.8125
v -0.31066 0.875 -0.75
v 0.31066 0.875 -0.75
v 0.33654875 0.875 -0.8125
v -0.284771875 0.875 -0.6875
v 0.284771875 0.875 -0.6875
v 0.25888375 0.875 -0.625
v -0.25888375 0.875 -0.625
v 0 0.875 -0.8125
v 0 0.125 -0.8125
v 0 0.8125 -0.8125
v -0.33654875 0.8125 -0.8125
v 0.33654875 0.8125 -0.8125
v 0 0.1875 -0.8125
v -0.33654875 0.1875 -0.8125
v 0.33654875 0.1875 -0.8125
v 0.305241875 0.8125 -0.8125
v 0.305241875 0.1875 -0.8125
v -0.320895 0.875 -0.8125
v -0.320895 0.8125 -0.8125
v -0.31969875 0.875 -0.8125
v -0.320895 0.1875 -0.8125
v -0.320895 0.125 -0.8125
v -0.31969875 0.125 -0.8125
v 0 0.1875 0
v 0.625 0.1875 -0.25888375
v 0.625 0.1875 0.25888375
v 0.8125 0.125 0.33654875
v 0.75 0.125 0.31066
v 0.75 0.125 -0.31066
v 0.8125 0.125 -0.33654875
v 0.6875 0.125 0.284771875
v 0.6875 0.125 -0.284771875
v 0.625 0.125 -0.25888375
v 0.625 0.125 0.25888375
v 0 0.8125 0
v 0.625 0.8125 0.25888375
v 0.625 0.8125 -0.25888375
v 0.8125 0.875 -0.33654875
v 0.75 0.875 -0.31066
v 0.75 0.875 0.31066
v 0.8125 0.875 0.33654875
v 0.6875 0.875 -0.284771875
v 0.6875 0.875 0.284771875
v 0.625 0.875 0.25888375
v 0.625 0.875 -0.25888375
v 0.8125 0.875 0
v 0.8125 0.125 0
v 0.8125 0.8125 0
v 0.8125 0.8125 -0.33654875
v 0.8125 0.8125 0.33654875
v 0.8125 0.1875 0
v 0.8125 0.1875 -0.33654875
v 0.8125 0.1875 0.33654875
v 0.8125 0.8125 0.305241875
v 0.8125 0.1875 0.305241875
v 0.8125 0.875 -0.320895
v 0.8125 0.8125 -0.320895
v 0.8125 0.875 -0.31969875
v 0.8125 0.1875 -0.320895
v 0.8125 0.125 -0.320895
v 0.8125 0.125 -0.31969875
v 0 0.1875 0
v 0.6250001934055951 0.1875 0.25888328307758934
v 0.25888328307758923 0.1875 0.6250001934055951
v 0.33654835638921377 0.125 0.812500163038926
v 0.31066029324649774 0.125 0.7499998785333235
v 0.7499998785333235 0.125 0.3106602932464979
v 0.8125001630389259 0.125 0.3365483563892139
v 0.28477178816204346 0.125 0.6875000359694593
v 0.6875000359694592 0.125 0.2847717881620436
v 0.6250001934055951 0.125 0.25888328307758934
v 0.25888328307758923 0.125 0.6250001934055951
v 0 0.8125 0
v 0.25888328307758923 0.8125 0.6250001934055951
v 0.6250001934055951 0.8125 0.25888328307758934
v 0.8125001630389259 0.875 0.3365483563892139
v 0.7499998785333235 0.875 0.3106602932464979
v 0.31066029324649774 0.875 0.7499998785333235
v 0.33654835638921377 0.875 0.812500163038926
v 0.6875000359694592 0.875 0.2847717881620436
v 0.28477178816204346 0.875 0.6875000359694593
v 0.25888328307758923 0.875 0.6250001934055951
v 0.6250001934055951 0.875 0.25888328307758934
v 0.5745242597140698 0.875 0.57452425971407
v 0.5745242597140698 0.125 0.57452425971407
v 0.5745242597140698 0.8125 0.57452425971407
v 0.8125001630389259 0.8125 0.3365483563892139
v 0.33654835638921377 0.8125 0.812500163038926
v 0.5745242597140698 0.1875 0.57452425971407
v 0.8125001630389259 0.1875 0.3365483563892139
v 0.33654835638921377 0.1875 0.812500163038926
v 0.3586856599994733 0.8125 0.7903628594286665
v 0.3586856599994733 0.1875 0.7903628594286665
v 0.801431290262927 0.875 0.3476172291652128
v 0.801431290262927 0.8125 0.3476172291652128
v 0.8005854137759326 0.875 0.34846310565220723
v 0.801431290262927 0.1875 0.3476172291652128
v 0.801431290262927 0.125 0.3476172291652128
v 0.8005854137759326 0.125 0.34846310565220723
vt 1 0.40625
vt 1 0.78125
vt 0.75 0.78125
vt 0.75 0.40625
vt 1 0.40625
vt 1 0.78125
vt 0.75 0.78125
vt 0.75 0.40625
vt 1 0.75
vt 1 1
vt 0.75 1
vt 0.75 0.75
vt 1 0.75
vt 1 1
vt 0.75 1
vt 0.75 0.75
vt 1 0.40625
vt 1 0.78125
vt 0.75 0.78125
vt 0.75 0.40625
vt 1 0.40625
vt 1 0.78125
vt 0.75 0.78125
vt 0.75 0.40625
vt 0.287109375 1
vt 0.029296875 1
vt 0.15625 0.6875
vt 0.1875 0.92650625
vt 0.1875 0.6417375000000001
vt 0.125 0.6287906249999999
vt 0.125 0.939453125
vt 0.4375 0.9128375
vt 0.4375 0.65395625
vt 0.375 0.6410125
vt 0.375 0.92578125
vt 0.4375 0.654296875
vt 0.4375 0.912109375
vt 0.375 0.912109375
vt 0.375 0.654296875
vt 0.287109375 1
vt 0.029296875 1
vt 0.15625 0.6875
vt 0.1875 0.6417375000000001
vt 0.1875 0.92650625
vt 0.125 0.939453125
vt 0.125 0.6287906249999999
vt 0.4375 0.65395625
vt 0.4375 0.9128375
vt 0.375 0.92578125
vt 0.375 0.6410125
vt 0.4375 0.912109375
vt 0.4375 0.654296875
vt 0.375 0.654296875
vt 0.375 0.912109375
vt 0.8125 0.87890625
vt 0.1875 0.87890625
vt 0.1875 0.7109375
vt 0.8125 0.7109375
vt 0.9375 0.390625
vt 0.875 0.390625
vt 0.875 0.22265625
vt 0.9375 0.22265625
vt 0.0625 0.22265625
vt 0.125 0.22265625
vt 0.125 0.390625
vt 0.0625 0.390625
vt 0.8125 0.5625
vt 0.8125 0.578125
vt 0.1875 0.578125
vt 0.1875 0.5625
vt 0.1875 0.37890625
vt 0.8125 0.37890625
vt 0.8125 0.53125
vt 0.1875 0.53125
vt 0.9375 0.5625
vt 0.9375 0.72265625
vt 0.875 0.72265625
vt 0.875 0.5625
vt 0.875 0.59375
vt 0.875 0.5859375
vt 0.9375 0.5859375
vt 0.9375 0.59375
vt 0.0625 0.5624990624999999
vt 0.125 0.56701875
vt 0.125 0.87768125
vt 0.0625 0.890625
vt 0.125 0.59375
vt 0.0625 0.5937490624999999
vt 0.0625 0.585325
vt 0.0625 0.5859375
vt 0.125 0.5859375
vt 0.125 0.59375
vt 0.0625 0.59375
vt 0.125 0.5625
vt 0.125 0.72265625
vt 0.0625 0.72265625
vt 0.0625 0.5625
vt 0.125 0.87768125
vt 0.125 0.56701875
vt 0.0625 0.5625
vt 0.0625 0.890625
vt 0.0625 0.59375
vt 0.125 0.5937490624999999
vt 0.0625 0.585325
vt 0.287109375 1
vt 0.029296875 1
vt 0.15625 0.6875
vt 0.1875 0.6358781250000001
vt 0.1875 0.920646875
vt 0.125 0.93359375
vt 0.125 0.6229312499999999
vt 0.4375 0.649546875
vt 0.4375 0.908428125
vt 0.375 0.921371875
vt 0.375 0.6366031249999999
vt 0.4375 0.908203125
vt 0.4375 0.650390625
vt 0.375 0.650390625
vt 0.375 0.908203125
vt 0.287109375 1
vt 0.029296875 1
vt 0.15625 0.6875
vt 0.1875 0.920646875
vt 0.1875 0.6358781250000001
vt 0.125 0.6229312499999999
vt 0.125 0.93359375
vt 0.4375 0.908428125
vt 0.4375 0.649546875
vt 0.375 0.6366031249999999
vt 0.375 0.921371875
vt 0.4375 0.650390625
vt 0.4375 0.908203125
vt 0.375 0.908203125
vt 0.375 0.650390625
vt 0.8125 0.87890625
vt 0.1875 0.87890625
vt 0.1875 0.7109375
vt 0.8125 0.7109375
vt 0.9375 0.390625
vt 0.875 0.390625
vt 0.875 0.22265625
vt 0.9375 0.22265625
vt 0.0625 0.22265625
vt 0.125 0.22265625
vt 0.125 0.390625
vt 0.0625 0.390625
vt 0.8125 0.5625
vt 0.8125 0.578125
vt 0.1875 0.578125
vt 0.1875 0.5625
vt 0.1875 0.37890625
vt 0.8125 0.37890625
vt 0.8125 0.53125
vt 0.1875 0.53125
vt 0.9375 0.5625
vt 0.9375 0.72265625
vt 0.875 0.72265625
vt 0.875 0.5625
vt 0.875 0.59375
vt 0.875 0.5859375
vt 0.9375 0.5859375
vt 0.9375 0.59375
vt 0.0625 0.5624990624999999
vt 0.125 0.56701875
vt 0.125 0.87768125
vt 0.0625 0.890625
vt 0.125 0.59375
vt 0.0625 0.5937490624999999
vt 0.0625 0.585325
vt 0.0625 0.5859375
vt 0.125 0.5859375
vt 0.125 0.59375
vt 0.0625 0.59375
vt 0.125 0.5625
vt 0.125 0.72265625
vt 0.0625 0.72265625
vt 0.0625 0.5625
vt 0.125 0.87768125
vt 0.125 0.56701875
vt 0.0625 0.5625
vt 0.0625 0.890625
vt 0.0625 0.59375
vt 0.125 0.5937490624999999
vt 0.0625 0.585325
vt 0.287109375 1
vt 0.029296875 1
vt 0.15625 0.6875
vt 0.1875 0.92650625
vt 0.1875 0.6417375000000001
vt 0.125 0.6287906249999999
vt 0.125 0.939453125
vt 0.4375 0.9128375
vt 0.4375 0.65395625
vt 0.375 0.6410125
vt 0.375 0.92578125
vt 0.4375 0.654296875
vt 0.4375 0.912109375
vt 0.375 0.912109375
vt 0.375 0.654296875
vt 0.287109375 1
vt 0.029296875 1
vt 0.15625 0.6875
vt 0.1875 0.6417375000000001
vt 0.1875 0.92650625
vt 0.125 0.939453125
vt 0.125 0.6287906249999999
vt 0.4375 0.65395625
vt 0.4375 0.9128375
vt 0.375 0.92578125
vt 0.375 0.6410125
vt 0.4375 0.912109375
vt 0.4375 0.654296875
vt 0.375 0.654296875
vt 0.375 0.912109375
vt 0.8125 0.87890625
vt 0.1875 0.87890625
vt 0.1875 0.7109375
vt 0.8125 0.7109375
vt 0.9375 0.390625
vt 0.875 0.390625
vt 0.875 0.22265625
vt 0.9375 0.22265625
vt 0.0625 0.22265625
vt 0.125 0.22265625
vt 0.125 0.390625
vt 0.0625 0.390625
vt 0.8125 0.5625
vt 0.8125 0.578125
vt 0.1875 0.578125
vt 0.1875 0.5625
vt 0.1875 0.37890625
vt 0.8125 0.37890625
vt 0.8125 0.53125
vt 0.1875 0.53125
vt 0.9375 0.5625
vt 0.9375 0.72265625
vt 0.875 0.72265625
vt 0.875 0.5625
vt 0.875 0.59375
vt 0.875 0.5859375
vt 0.9375 0.5859375
vt 0.9375 0.59375
vt 0.0625 0.5624990624999999
vt 0.125 0.56701875
vt 0.125 0.87768125
vt 0.0625 0.890625
vt 0.125 0.59375
vt 0.0625 0.5937490624999999
vt 0.0625 0.585325
vt 0.0625 0.5859375
vt 0.125 0.5859375
vt 0.125 0.59375
vt 0.0625 0.59375
vt 0.125 0.5625
vt 0.125 0.72265625
vt 0.0625 0.72265625
vt 0.0625 0.5625
vt 0.125 0.87768125
vt 0.125 0.56701875
vt 0.0625 0.5625
vt 0.0625 0.890625
vt 0.0625 0.59375
vt 0.125 0.5937490624999999
vt 0.0625 0.585325
vt 0.287109375 1
vt 0.029296875 1
vt 0.15625 0.6875
vt 0.1875 0.6358781250000001
vt 0.1875 0.920646875
vt 0.125 0.93359375
vt 0.125 0.6229312499999999
vt 0.4375 0.649546875
vt 0.4375 0.908428125
vt 0.375 0.921371875
vt 0.375 0.6366031249999999
vt 0.4375 0.908203125
vt 0.4375 0.650390625
vt 0.375 0.650390625
vt 0.375 0.908203125
vt 0.287109375 1
vt 0.029296875 1
vt 0.15625 0.6875
vt 0.1875 0.920646875
vt 0.1875 0.6358781250000001
vt 0.125 0.6229312499999999
vt 0.125 0.93359375
vt 0.4375 0.908428125
vt 0.4375 0.649546875
vt 0.375 0.6366031249999999
vt 0.375 0.921371875
vt 0.4375 0.650390625
vt 0.4375 0.908203125
vt 0.375 0.908203125
vt 0.375 0.650390625
vt 0.8125 0.87890625
vt 0.1875 0.87890625
vt 0.1875 0.7109375
vt 0.8125 0.7109375
vt 0.9375 0.390625
vt 0.875 0.390625
vt 0.875 0.22265625
vt 0.9375 0.22265625
vt 0.0625 0.22265625
vt 0.125 0.22265625
vt 0.125 0.390625
vt 0.0625 0.390625
vt 0.8125 0.5625
vt 0.8125 0.578125
vt 0.1875 0.578125
vt 0.1875 0.5625
vt 0.1875 0.37890625
vt 0.8125 0.37890625
vt 0.8125 0.53125
vt 0.1875 0.53125
vt 0.9375 0.5625
vt 0.9375 0.72265625
vt 0.875 0.72265625
vt 0.875 0.5625
vt 0.875 0.59375
vt 0.875 0.5859375
vt 0.9375 0.5859375
vt 0.9375 0.59375
vt 0.0625 0.5624990624999999
vt 0.125 0.56701875
vt 0.125 0.87768125
vt 0.0625 0.890625
vt 0.125 0.59375
vt 0.0625 0.5937490624999999
vt 0.0625 0.585325
vt 0.0625 0.5859375
vt 0.125 0.5859375
vt 0.125 0.59375
vt 0.0625 0.59375
vt 0.125 0.5625
vt 0.125 0.72265625
vt 0.0625 0.72265625
vt 0.0625 0.5625
vt 0.125 0.87768125
vt 0.125 0.56701875
vt 0.0625 0.5625
vt 0.0625 0.890625
vt 0.0625 0.59375
vt 0.125 0.5937490624999999
vt 0.0625 0.585325
vt 0.287109375 1
vt 0.029296875 1
vt 0.15625 0.6875
vt 0.1875 0.6358781250000001
vt 0.1875 0.920646875
vt 0.125 0.93359375
vt 0.125 0.6229312499999999
vt 0.4375 0.649546875
vt 0.4375 0.908428125
vt 0.375 0.921371875
vt 0.375 0.6366031249999999
vt 0.4375 0.908203125
vt 0.4375 0.650390625
vt 0.375 0.650390625
vt 0.375 0.908203125
vt 0.287109375 1
vt 0.029296875 1
vt 0.15625 0.6875
vt 0.1875 0.920646875
vt 0.1875 0.6358781250000001
vt 0.125 0.6229312499999999
vt 0.125 0.93359375
vt 0.4375 0.908428125
vt 0.4375 0.649546875
vt 0.375 0.6366031249999999
vt 0.375 0.921371875
vt 0.4375 0.650390625
vt 0.4375 0.908203125
vt 0.375 0.908203125
vt 0.375 0.650390625
vt 0.8125 0.87890625
vt 0.1875 0.87890625
vt 0.1875 0.7109375
vt 0.8125 0.7109375
vt 0.9375 0.390625
vt 0.875 0.390625
vt 0.875 0.22265625
vt 0.9375 0.22265625
vt 0.0625 0.22265625
vt 0.125 0.22265625
vt 0.125 0.390625
vt 0.0625 0.390625
vt 0.8125 0.5625
vt 0.8125 0.578125
vt 0.1875 0.578125
vt 0.1875 0.5625
vt 0.1875 0.37890625
vt 0.8125 0.37890625
vt 0.8125 0.53125
vt 0.1875 0.53125
vt 0.9375 0.5625
vt 0.9375 0.72265625
vt 0.875 0.72265625
vt 0.875 0.5625
vt 0.875 0.59375
vt 0.875 0.5859375
vt 0.9375 0.5859375
vt 0.9375 0.59375
vt 0.0625 0.5624990624999999
vt 0.125 0.56701875
vt 0.125 0.87768125
vt 0.0625 0.890625
vt 0.125 0.59375
vt 0.0625 0.5937490624999999
vt 0.0625 0.585325
vt 0.0625 0.5859375
vt 0.125 0.5859375
vt 0.125 0.59375
vt 0.0625 0.59375
vt 0.125 0.5625
vt 0.125 0.72265625
vt 0.0625 0.72265625
vt 0.0625 0.5625
vt 0.125 0.87768125
vt 0.125 0.56701875
vt 0.0625 0.5625
vt 0.0625 0.890625
vt 0.0625 0.59375
vt 0.125 0.5937490624999999
vt 0.0625 0.585325
vt 0.287109375 1
vt 0.029296875 1
vt 0.15625 0.6875
vt 0.1875 0.92650625
vt 0.1875 0.6417375000000001
vt 0.125 0.6287906249999999
vt 0.125 0.939453125
vt 0.4375 0.9128375
vt 0.4375 0.65395625
vt 0.375 0.6410125
vt 0.375 0.92578125
vt 0.4375 0.654296875
vt 0.4375 0.912109375
vt 0.375 0.912109375
vt 0.375 0.654296875
vt 0.287109375 1
vt 0.029296875 1
vt 0.15625 0.6875
vt 0.1875 0.6417375000000001
vt 0.1875 0.92650625
vt 0.125 0.939453125
vt 0.125 0.6287906249999999
vt 0.4375 0.65395625
vt 0.4375 0.9128375
vt 0.375 0.92578125
vt 0.375 0.6410125
vt 0.4375 0.912109375
vt 0.4375 0.654296875
vt 0.375 0.654296875
vt 0.375 0.912109375
vt 0.8125 0.87890625
vt 0.1875 0.87890625
vt 0.1875 0.7109375
vt 0.8125 0.7109375
vt 0.9375 0.390625
vt 0.875 0.390625
vt 0.875 0.22265625
vt 0.9375 0.22265625
vt 0.0625 0.22265625
vt 0.125 0.22265625
vt 0.125 0.390625
vt 0.0625 0.390625
vt 0.8125 0.5625
vt 0.8125 0.578125
vt 0.1875 0.578125
vt 0.1875 0.5625
vt 0.1875 0.37890625
vt 0.8125 0.37890625
vt 0.8125 0.53125
vt 0.1875 0.53125
vt 0.9375 0.5625
vt 0.9375 0.72265625
vt 0.875 0.72265625
vt 0.875 0.5625
vt 0.875 0.59375
vt 0.875 0.5859375
vt 0.9375 0.5859375
vt 0.9375 0.59375
vt 0.0625 0.5624990624999999
vt 0.125 0.56701875
vt 0.125 0.87768125
vt 0.0625 0.890625
vt 0.125 0.59375
vt 0.0625 0.5937490624999999
vt 0.0625 0.585325
vt 0.0625 0.5859375
vt 0.125 0.5859375
vt 0.125 0.59375
vt 0.0625 0.59375
vt 0.125 0.5625
vt 0.125 0.72265625
vt 0.0625 0.72265625
vt 0.0625 0.5625
vt 0.125 0.87768125
vt 0.125 0.56701875
vt 0.0625 0.5625
vt 0.0625 0.890625
vt 0.0625 0.59375
vt 0.125 0.5937490624999999
vt 0.0625 0.585325
vt 0.287109375 1
vt 0.029296875 1
vt 0.15625 0.6875
vt 0.1875 0.92650625
vt 0.1875 0.6417375000000001
vt 0.125 0.6287906249999999
vt 0.125 0.939453125
vt 0.4375 0.9128375
vt 0.4375 0.65395625
vt 0.375 0.6410125
vt 0.375 0.92578125
vt 0.4375 0.654296875
vt 0.4375 0.912109375
vt 0.375 0.912109375
vt 0.375 0.654296875
vt 0.287109375 1
vt 0.029296875 1
vt 0.15625 0.6875
vt 0.1875 0.6417375000000001
vt 0.1875 0.92650625
vt 0.125 0.939453125
vt 0.125 0.6287906249999999
vt 0.4375 0.65395625
vt 0.4375 0.9128375
vt 0.375 0.92578125
vt 0.375 0.6410125
vt 0.4375 0.912109375
vt 0.4375 0.654296875
vt 0.375 0.654296875
vt 0.375 0.912109375
vt 0.8125 0.87890625
vt 0.1875 0.87890625
vt 0.1875 0.7109375
vt 0.8125 0.7109375
vt 0.9375 0.390625
vt 0.875 0.390625
vt 0.875 0.22265625
vt 0.9375 0.22265625
vt 0.0625 0.22265625
vt 0.125 0.22265625
vt 0.125 0.390625
vt 0.0625 0.390625
vt 0.8125 0.5625
vt 0.8125 0.578125
vt 0.1875 0.578125
vt 0.1875 0.5625
vt 0.1875 0.37890625
vt 0.8125 0.37890625
vt 0.8125 0.53125
vt 0.1875 0.53125
vt 0.9375 0.5625
vt 0.9375 0.72265625
vt 0.875 0.72265625
vt 0.875 0.5625
vt 0.875 0.59375
vt 0.875 0.5859375
vt 0.9375 0.5859375
vt 0.9375 0.59375
vt 0.0625 0.5624990624999999
vt 0.125 0.56701875
vt 0.125 0.87768125
vt 0.0625 0.890625
vt 0.125 0.59375
vt 0.0625 0.5937490624999999
vt 0.0625 0.585325
vt 0.0625 0.5859375
vt 0.125 0.5859375
vt 0.125 0.59375
vt 0.0625 0.59375
vt 0.125 0.5625
vt 0.125 0.72265625
vt 0.0625 0.72265625
vt 0.0625 0.5625
vt 0.125 0.87768125
vt 0.125 0.56701875
vt 0.0625 0.5625
vt 0.0625 0.890625
vt 0.0625 0.59375
vt 0.125 0.5937490624999999
vt 0.0625 0.585325
vt 0.287109375 1
vt 0.029296875 1
vt 0.15625 0.6875
vt 0.1875 0.6358781250000001
vt 0.1875 0.920646875
vt 0.125 0.93359375
vt 0.125 0.6229312499999999
vt 0.4375 0.649546875
vt 0.4375 0.908428125
vt 0.375 0.921371875
vt 0.375 0.6366031249999999
vt 0.4375 0.908203125
vt 0.4375 0.650390625
vt 0.375 0.650390625
vt 0.375 0.908203125
vt 0.287109375 1
vt 0.029296875 1
vt 0.15625 0.6875
vt 0.1875 0.920646875
vt 0.1875 0.6358781250000001
vt 0.125 0.6229312499999999
vt 0.125 0.93359375
vt 0.4375 0.908428125
vt 0.4375 0.649546875
vt 0.375 0.6366031249999999
vt 0.375 0.921371875
vt 0.4375 0.650390625
vt 0.4375 0.908203125
vt 0.375 0.908203125
vt 0.375 0.650390625
vt 0.8125 0.87890625
vt 0.1875 0.87890625
vt 0.1875 0.7109375
vt 0.8125 0.7109375
vt 0.9375 0.390625
vt 0.875 0.390625
vt 0.875 0.22265625
vt 0.9375 0.22265625
vt 0.0625 0.22265625
vt 0.125 0.22265625
vt 0.125 0.390625
vt 0.0625 0.390625
vt 0.8125 0.5625
vt 0.8125 0.578125
vt 0.1875 0.578125
vt 0.1875 0.5625
vt 0.1875 0.37890625
vt 0.8125 0.37890625
vt 0.8125 0.53125
vt 0.1875 0.53125
vt 0.9375 0.5625
vt 0.9375 0.72265625
vt 0.875 0.72265625
vt 0.875 0.5625
vt 0.875 0.59375
vt 0.875 0.5859375
vt 0.9375 0.5859375
vt 0.9375 0.59375
vt 0.0625 0.5624990624999999
vt 0.125 0.56701875
vt 0.125 0.87768125
vt 0.0625 0.890625
vt 0.125 0.59375
vt 0.0625 0.5937490624999999
vt 0.0625 0.585325
vt 0.0625 0.5859375
vt 0.125 0.5859375
vt 0.125 0.59375
vt 0.0625 0.59375
vt 0.125 0.5625
vt 0.125 0.72265625
vt 0.0625 0.72265625
vt 0.0625 0.5625
vt 0.125 0.87768125
vt 0.125 0.56701875
vt 0.0625 0.5625
vt 0.0625 0.890625
vt 0.0625 0.59375
vt 0.125 0.5937490624999999
vt 0.0625 0.585325
vn 1 0 0
vn -1 0 0
vn 0 1 0
vn 0 -1 0
vn 0 0 1
vn 0 0 -1
vn 0 -1 0
vn 0 -1 0
vn 0 -1 0
vn 0 0 -1
vn 0 1 0
vn 0 1 0
vn 0 1 0
vn 0 0 -1
vn 0 0 1
vn 0 0 1
vn 0 0 1
vn 0 0 1
vn 0 0 1
vn 0 0 1
vn 0 0 1
vn 0 1 0
vn 0 1 0
vn 0 0 1
vn 0 0 1
vn 0 -1 0
vn 0 -1 0
vn 0 -1 0
vn 0 -1 0
vn 0 -1 0
vn 0.7071067811865477 0 -0.7071067811865475
vn 0 1 0
vn 0 1 0
vn 0 1 0
vn 0.7071067811865477 0 -0.7071067811865475
vn -0.7071067811865476 0 0.7071067811865476
vn -0.7071067811865476 0 0.7071067811865476
vn -0.7071067811865476 0 0.7071067811865476
vn -0.7071067811865476 0 0.7071067811865476
vn -0.7071067811865476 0 0.7071067811865476
vn -0.7071067811865477 0 0.7071067811865475
vn -0.7071067811865458 0 0.7071067811865493
vn 0 1 0
vn 0 1 0
vn -0.7071067811865458 0 0.7071067811865493
vn -0.7071067811865477 0 0.7071067811865475
vn 0 -1 0
vn 0 -1 0
vn 0 -1 0
vn 0 -1 0
vn 0 -1 0
vn 1 0 0
vn 0 1 0
vn 0 1 0
vn 0 1 0
vn 1 0 0
vn -1 0 0
vn -1 0 0
vn -1 0 0
vn -1 0 0
vn -1 0 0
vn -1 0 0
vn -1 0 0
vn 0 1 0
vn 0 1 0
vn -1 0 0
vn -1 0 0
vn 0 -1 0
vn 0 -1 0
vn 0 -1 0
vn 0 -1 0
vn 0 -1 0
vn 0.7071067811865475 0 0.7071067811865477
vn 0 1 0
vn 0 1 0
vn 0 1 0
vn 0.7071067811865475 0 0.7071067811865477
vn -0.7071067811865476 0 -0.7071067811865476
vn -0.7071067811865476 0 -0.7071067811865476
vn -0.7071067811865476 0 -0.7071067811865476
vn -0.7071067811865476 0 -0.7071067811865476
vn -0.7071067811865476 0 -0.7071067811865476
vn -0.7071067811865475 0 -0.7071067811865477
vn -0.7071067811865493 0 -0.7071067811865458
vn 0 1 0
vn 0 1 0
vn -0.7071067811865493 0 -0.7071067811865458
vn -0.7071067811865475 0 -0.7071067811865477
vn 0 -1 0
vn 0 -1 0
vn 0 -1 0
vn 0 -1 0
vn 0 -1 0
vn -0.7071067811865477 0 0.7071067811865475
vn 0 1 0
vn 0 1 0
vn 0 1 0
vn -0.7071067811865477 0 0.7071067811865475
vn 0.7071067811865476 0 -0.7071067811865476
vn 0.7071067811865476 0 -0.7071067811865476
vn 0.7071067811865476 0 -0.7071067811865476
vn 0.7071067811865476 0 -0.7071067811865476
vn 0.7071067811865476 0 -0.7071067811865476
vn 0.7071067811865477 0 -0.7071067811865475
vn 0.7071067811865458 0 -0.7071067811865493
vn 0 1 0
vn 0 1 0
vn 0.7071067811865458 0 -0.7071067811865493
vn 0.7071067811865477 0 -0.7071067811865475
vn 0 -1 0
vn 0 -1 0
vn 0 -1 0
vn 0 -1 0
vn 0 -1 0
vn 0 0 1
vn 0 1 0
vn 0 1 0
vn 0 1 0
vn 0 0 1
vn 0 0 -1
vn 0 0 -1
vn 0 0 -1
vn 0 0 -1
vn 0 0 -1
vn 0 0 -1
vn 0 0 -1
vn 0 1 0
vn 0 1 0
vn 0 0 -1
vn 0 0 -1
vn 0 -1 0
vn 0 -1 0
vn 0 -1 0
vn 0 -1 0
vn 0 -1 0
vn -1 0 0
vn 0 1 0
vn 0 1 0
vn 0 1 0
vn -1 0 0
vn 1 0 0
vn 1 0 0
vn 1 0 0
vn 1 0 0
vn 1 0 0
vn 1 0 0
vn 1 0 0
vn 0 1 0
vn 0 1 0
vn 1 0 0
vn 1 0 0
vn 0 -1 0
vn 0 -1 0
vn 0 -1 0
vn 0 -1 0
vn 0 -1 0
vn -0.7071067811865475 0 -0.7071067811865477
vn 0 1 0
vn 0 1 0
vn 0 1 0
vn -0.7071067811865475 0 -0.7071067811865477
vn 0.7071067811865476 0 0.7071067811865476
vn 0.7071067811865476 0 0.7071067811865476
vn 0.7071067811865476 0 0.7071067811865476
vn 0.7071067811865476 0 0.7071067811865476
vn 0.7071067811865476 0 0.7071067811865476
vn 0.7071067811865475 0 0.7071067811865477
vn 0.7071067811865493 0 0.7071067811865458
vn 0 1 0
vn 0 1 0
vn 0.7071067811865493 0 0.7071067811865458
vn 0.7071067811865475 0 0.7071067811865477
vn 0 -1 0
vn 0 -1 0
usemtl m_255a88dc-71d6-61c5-fb3f-9262c6f9a61f
f 4/1/1 2/2/1 1/3/1 3/4/1
f 7/5/2 5/6/2 6/7/2 8/8/2
f 1/9/3 2/10/3 6/11/3 5/12/3
f 4/13/4 3/14/4 7/15/4 8/16/4
f 3/17/5 1/18/5 5/19/5 7/20/5
f 8/21/6 6/22/6 2/23/6 4/24/6
f 10/25/7 11/26/7 9/27/7
usemtl m_9aacf66f-9a43-af65-16bf-421a616ddee0
f 16/28/8 17/29/8 14/30/8 13/31/8
f 19/32/9 18/33/9 17/34/9 16/35/9
f 18/36/10 19/37/10 11/38/10 10/39/10
usemtl m_255a88dc-71d6-61c5-fb3f-9262c6f9a61f
f 21/40/11 22/41/11 20/42/11
usemtl m_9aacf66f-9a43-af65-16bf-421a616ddee0
f 27/43/12 28/44/12 25/45/12 24/46/12
f 30/47/13 29/48/13 28/49/13 27/50/13
f 29/51/14 30/52/14 22/53/14 21/54/14
f 33/55/15 36/56/15 37/57/15 34/58/15
f 26/59/16 35/60/16 33/61/16 31/62/16
f 32/63/17 36/64/17 38/65/17 12/66/17
f 39/67/18 35/68/18 38/69/18 40/70/18
f 36/71/19 33/72/19 39/73/19 40/74/19
f 41/75/20 31/76/20 33/77/20 42/78/20
f 42/79/21 34/80/21 23/81/21 41/82/21
f 43/83/22 24/84/22 25/85/22 26/86/22
f 24/87/23 43/88/23 23/89/23
f 15/90/24 37/91/24 44/92/24 45/93/24
f 44/94/25 36/95/25 32/96/25 45/97/25
f 13/98/26 14/99/26 46/100/26 12/101/26
f 46/102/27 14/103/27 15/104/27
usemtl m_255a88dc-71d6-61c5-fb3f-9262c6f9a61f
f 48/105/28 49/106/28 47/107/28
usemtl m_9aacf66f-9a43-af65-16bf-421a616ddee0
f 54/108/29 55/109/29 52/110/29 51/111/29
f 57/112/30 56/113/30 55/114/30 54/115/30
f 56/116/31 57/117/31 49/118/31 48/119/31
usemtl m_255a88dc-71d6-61c5-fb3f-9262c6f9a61f
f 59/120/32 60/121/32 58/122/32
usemtl m_9aacf66f-9a43-af65-16bf-421a616ddee0
f 65/123/33 66/124/33 63/125/33 62/126/33
f 68/127/34 67/128/34 66/129/34 65/130/34
f 67/131/35 68/132/35 60/133/35 59/134/35
f 71/135/36 74/136/36 75/137/36 72/138/36
f 64/139/37 73/140/37 71/141/37 69/142/37
f 70/143/38 74/144/38 76/145/38 50/146/38
f 77/147/39 73/148/39 76/149/39 78/150/39
f 74/151/40 71/152/40 77/153/40 78/154/40
f 79/155/41 69/156/41 71/157/41 80/158/41
f 80/159/42 72/160/42 61/161/42 79/162/42
f 81/163/43 62/164/43 63/165/43 64/166/43
f 62/167/44 81/168/44 61/169/44
f 53/170/45 75/171/45 82/172/45 83/173/45
f 82/174/46 74/175/46 70/176/46 83/177/46
f 51/178/47 52/179/47 84/180/47 50/181/47
f 84/182/48 52/183/48 53/184/48
usemtl m_255a88dc-71d6-61c5-fb3f-9262c6f9a61f
f 86/185/49 87/186/49 85/187/49
usemtl m_9aacf66f-9a43-af65-16bf-421a616ddee0
f 92/188/50 93/189/50 90/190/50 89/191/50
f 95/192/51 94/193/51 93/194/51 92/195/51
f 94/196/52 95/197/52 87/198/52 86/199/52
usemtl m_255a88dc-71d6-61c5-fb3f-9262c6f9a61f
f 97/200/53 98/201/53 96/202/53
usemtl m_9aacf66f-9a43-af65-16bf-421a616ddee0
f 103/203/54 104/204/54 101/205/54 100/206/54
f 106/207/55 105/208/55 104/209/55 103/210/55
f 105/211/56 106/212/56 98/213/56 97/214/56
f 109/215/57 112/216/57 113/217/57 110/218/57
f 102/219/58 111/220/58 109/221/58 107/222/58
f 108/223/59 112/224/59 114/225/59 88/226/59
f 115/227/60 111/228/60 114/229/60 116/230/60
f 112/231/61 109/232/61 115/233/61 116/234/61
f 117/235/62 107/236/62 109/237/62 118/238/62
f 118/239/63 110/240/63 99/241/63 117/242/63
f 119/243/64 100/244/64 101/245/64 102/246/64
f 100/247/65 119/248/65 99/249/65
f 91/250/66 113/251/66 120/252/66 121/253/66
f 120/254/67 112/255/67 108/256/67 121/257/67
f 89/258/68 90/259/68 122/260/68 88/261/68
f 122/262/69 90/263/69 91/264/69
usemtl m_255a88dc-71d6-61c5-fb3f-9262c6f9a61f
f 124/265/70 125/266/70 123/267/70
usemtl m_9aacf66f-9a43-af65-16bf-421a616ddee0
f 130/268/71 131/269/71 128/270/71 127/271/71
f 133/272/72 132/273/72 131/274/72 130/275/72
f 132/276/73 133/277/73 125/278/73 124/279/73
usemtl m_255a88dc-71d6-61c5-fb3f-9262c6f9a61f
f 135/280/74 136/281/74 134/282/74
usemtl m_9aacf66f-9a43-af65-16bf-421a616ddee0
f 141/283/75 142/284/75 139/285/75 138/286/75
f 144/287/76 143/288/76 142/289/76 141/290/76
f 143/291/77 144/292/77 136/293/77 135/294/77
f 147/295/78 150/296/78 151/297/78 148/298/78
f 140/299/79 149/300/79 147/301/79 145/302/79
f 146/303/80 150/304/80 152/305/80 126/306/80
f 153/307/81 149/308/81 152/309/81 154/310/81
f 150/311/82 147/312/82 153/313/82 154/314/82
f 155/315/83 145/316/83 147/317/83 156/318/83
f 156/319/84 148/320/84 137/321/84 155/322/84
f 157/323/85 138/324/85 139/325/85 140/326/85
f 138/327/86 157/328/86 137/329/86
f 129/330/87 151/331/87 158/332/87 159/333/87
f 158/334/88 150/335/88 146/336/88 159/337/88
f 127/338/89 128/339/89 160/340/89 126/341/89
f 160/342/90 128/343/90 129/344/90
usemtl m_255a88dc-71d6-61c5-fb3f-9262c6f9a61f
f 162/345/91 163/346/91 161/347/91
usemtl m_9aacf66f-9a43-af65-16bf-421a616ddee0
f 168/348/92 169/349/92 166/350/92 165/351/92
f 171/352/93 170/353/93 169/354/93 168/355/93
f 170/356/94 171/357/94 163/358/94 162/359/94
usemtl m_255a88dc-71d6-61c5-fb3f-9262c6f9a61f
f 173/360/95 174/361/95 172/362/95
usemtl m_9aacf66f-9a43-af65-16bf-421a616ddee0
f 179/363/96 180/364/96 177/365/96 176/366/96
f 182/367/97 181/368/97 180/369/97 179/370/97
f 181/371/98 182/372/98 174/373/98 173/374/98
f 185/375/99 188/376/99 189/377/99 186/378/99
f 178/379/100 187/380/100 185/381/100 183/382/100
f 184/383/101 188/384/101 190/385/101 164/386/101
f 191/387/102 187/388/102 190/389/102 192/390/102
f 188/391/103 185/392/103 191/393/103 192/394/103
f 193/395/104 183/396/104 185/397/104 194/398/104
f 194/399/105 186/400/105 175/401/105 193/402/105
f 195/403/106 176/404/106 177/405/106 178/406/106
f 176/407/107 195/408/107 175/409/107
f 167/410/108 189/411/108 196/412/108 197/413/108
f 196/414/109 188/415/109 184/416/109 197/417/109
f 165/418/110 166/419/110 198/420/110 164/421/110
f 198/422/111 166/423/111 167/424/111
usemtl m_255a88dc-71d6-61c5-fb3f-9262c6f9a61f
f 200/425/112 201/426/112 199/427/112
usemtl m_9aacf66f-9a43-af65-16bf-421a616ddee0
f 206/428/113 207/429/113 204/430/113 203/431/113
f 209/432/114 208/433/114 207/434/114 206/435/114
f 208/436/115 209/437/115 201/438/115 200/439/115
usemtl m_255a88dc-71d6-61c5-fb3f-9262c6f9a61f
f 211/440/116 212/441/116 210/442/116
usemtl m_9aacf66f-9a43-af65-16bf-421a616ddee0
f 217/443/117 218/444/117 215/445/117 214/446/117
f 220/447/118 219/448/118 218/449/118 217/450/118
f 219/451/119 220/452/119 212/453/119 211/454/119
f 223/455/120 226/456/120 227/457/120 224/458/120
f 216/459/121 225/460/121 223/461/121 221/462/121
f 222/463/122 226/464/122 228/465/122 202/466/122
f 229/467/123 225/468/123 228/469/123 230/470/123
f 226/471/124 223/472/124 229/473/124 230/474/124
f 231/475/125 221/476/125 223/477/125 232/478/125
f 232/479/126 224/480/126 213/481/126 231/482/126
f 233/483/127 214/484/127 215/485/127 216/486/127
f 214/487/128 233/488/128 213/489/128
f 205/490/129 227/491/129 234/492/129 235/493/129
f 234/494/130 226/495/130 222/496/130 235/497/130
f 203/498/131 204/499/131 236/500/131 202/501/131
f 236/502/132 204/503/132 205/504/132
usemtl m_255a88dc-71d6-61c5-fb3f-9262c6f9a61f
f 238/505/133 239/506/133 237/507/133
usemtl m_9aacf66f-9a43-af65-16bf-421a616ddee0
f 244/508/134 245/509/134 242/510/134 241/511/134
f 247/512/135 246/513/135 245/514/135 244/515/135
f 246/516/136 247/517/136 239/518/136 238/519/136
usemtl m_255a88dc-71d6-61c5-fb3f-9262c6f9a61f
f 249/520/137 250/521/137 248/522/137
usemtl m_9aacf66f-9a43-af65-16bf-421a616ddee0
f 255/523/138 256/524/138 253/525/138 252/526/138
f 258/527/139 257/528/139 256/529/139 255/530/139
f 257/531/140 258/532/140 250/533/140 249/534/140
f 261/535/141 264/536/141 265/537/141 262/538/141
f 254/539/142 263/540/142 261/541/142 259/542/142
f 260/543/143 264/544/143 266/545/143 240/546/143
f 267/547/144 263/548/144 266/549/144 268/550/144
f 264/551/145 261/552/145 267/553/145 268/554/145
f 269/555/146 259/556/146 261/557/146 270/558/146
f 270/559/147 262/560/147 251/561/147 269/562/147
f 271/563/148 252/564/148 253/565/148 254/566/148
f 252/567/149 271/568/149 251/569/149
f 243/570/150 265/571/150 272/572/150 273/573/150
f 272/574/151 264/575/151 260/576/151 273/577/151
f 241/578/152 242/579/152 274/580/152 240/581/152
f 274/582/153 242/583/153 243/584/153
usemtl m_255a88dc-71d6-61c5-fb3f-9262c6f9a61f
f 276/585/154 277/586/154 275/587/154
usemtl m_9aacf66f-9a43-af65-16bf-421a616ddee0
f 282/588/155 283/589/155 280/590/155 279/591/155
f 285/592/156 284/593/156 283/594/156 282/595/156
f 284/596/157 285/597/157 277/598/157 276/599/157
usemtl m_255a88dc-71d6-61c5-fb3f-9262c6f9a61f
f 287/600/158 288/601/158 286/602/158
usemtl m_9aacf66f-9a43-af65-16bf-421a616ddee0
f 293/603/159 294/604/159 291/605/159 290/606/159
f 296/607/160 295/608/160 294/609/160 293/610/160
f 295/611/161 296/612/161 288/613/161 287/614/161
f 299/615/162 302/616/162 303/617/162 300/618/162
f 292/619/163 301/620/163 299/621/163 297/622/163
f 298/623/164 302/624/164 304/625/164 278/626/164
f 305/627/165 301/628/165 304/629/165 306/630/165
f 302/631/166 299/632/166 305/633/166 306/634/166
f 307/635/167 297/636/167 299/637/167 308/638/167
f 308/639/168 300/640/168 289/641/168 307/642/168
f 309/643/169 290/644/169 291/645/169 292/646/169
f 290/647/170 309/648/170 289/649/170
f 281/650/171 303/651/171 310/652/171 311/653/171
f 310/654/172 302/655/172 298/656/172 311/657/172
f 279/658/173 280/659/173 312/660/173 278/661/173
f 312/662/174 280/663/174 281/664/174